<svg id="Group_873" data-name="Group 873" xmlns="http://www.w3.org/2000/svg" viewBox="7903 3557 443.268 36.845">
  <defs>
    <style>
      .cls-1 {
        fill: #ececec;
      }

      .cls-2 {
        fill: #fff;
      }

      .cls-3 {
        fill: #b0d25a;
      }

      .cls-4 {
        fill: #717272;
      }

      .cls-5 {
        fill: #faa800;
      }
    </style>
  </defs>
  <rect id="Rectangle_518" data-name="Rectangle 518" class="cls-1" width="443.268" height="6.512" rx="3.256" transform="translate(7903 3587.333)"/>
  <g id="Group_869" data-name="Group 869" transform="translate(8294.003 3557)">
    <rect id="Rectangle_523" data-name="Rectangle 523" class="cls-2" width="35.375" height="18.491" transform="translate(4.02 1.608)"/>
    <g id="Group_868" data-name="Group 868" transform="translate(0 0)">
      <path id="Union_144" data-name="Union 144" class="cls-3" d="M27.341,25.416a5.132,5.132,0,0,1,.112-1.065H18.838a4.874,4.874,0,0,1,.112,1.065,5.55,5.55,0,1,1-11.1,0,5.181,5.181,0,0,1,.111-1.065H2.878V19.006H25.21V3.084H37.9l2.673,9.026v6.9h.878a.455.455,0,0,1,.448.449V23.9a.454.454,0,0,1-.448.449H38.33a4.874,4.874,0,0,1,.112,1.065,5.55,5.55,0,1,1-11.1,0Zm2.878,0a2.672,2.672,0,1,0,2.673-2.672A2.672,2.672,0,0,0,30.219,25.416Zm-19.492,0A2.672,2.672,0,1,0,13.4,22.744,2.672,2.672,0,0,0,10.727,25.416ZM30.985,12.372h7.008l-1.7-6.354H30.985ZM4,14.409V11.755H19.9v2.654ZM0,9.083V6.541H19.9V9.083ZM4,3.065V0H27.341V3.065Z"/>
    </g>
  </g>
  <g id="Group_870" data-name="Group 870" transform="translate(7915.036 3563)">
    <rect id="Rectangle_527" data-name="Rectangle 527" class="cls-2" width="6.313" height="11.363" transform="translate(21.513 3.788)"/>
    <path id="Union_145" data-name="Union 145" class="cls-4" d="M19.208,19.957a4.037,4.037,0,0,1,.088-.836H12.532a3.856,3.856,0,0,1,.088.836,4.358,4.358,0,0,1-8.717,0,4.024,4.024,0,0,1,.088-.836H0v-4.2H.881V0H19.208V2.421H27.5l2.1,7.087v5.415h.69a.357.357,0,0,1,.352.352v3.492a.357.357,0,0,1-.352.353H27.837a3.856,3.856,0,0,1,.088.836,4.358,4.358,0,0,1-8.717,0Zm2.26,0a2.1,2.1,0,1,0,2.1-2.1A2.1,2.1,0,0,0,21.469,19.957Zm-15.305,0a2.1,2.1,0,1,0,2.1-2.1A2.1,2.1,0,0,0,6.163,19.957ZM22.07,9.714h5.5L26.237,4.725H22.07Z"/>
  </g>
  <rect id="Rectangle_529" data-name="Rectangle 529" class="cls-2" width="35.375" height="18.491" transform="translate(8300.389 3558.608)"/>
  <g id="Group_871" data-name="Group 871" transform="translate(8294 3557)">
    <path id="Union_147" data-name="Union 147" class="cls-3" d="M27.341,25.416a5.132,5.132,0,0,1,.112-1.065H18.838a4.874,4.874,0,0,1,.112,1.065,5.55,5.55,0,1,1-11.1,0,5.181,5.181,0,0,1,.111-1.065H2.878V19.006H25.21V3.084H37.9l2.673,9.026v6.9h.878a.455.455,0,0,1,.448.449V23.9a.454.454,0,0,1-.448.449H38.33a4.874,4.874,0,0,1,.112,1.065,5.55,5.55,0,1,1-11.1,0Zm2.878,0a2.672,2.672,0,1,0,2.673-2.672A2.672,2.672,0,0,0,30.219,25.416Zm-19.492,0A2.672,2.672,0,1,0,13.4,22.744,2.672,2.672,0,0,0,10.727,25.416ZM30.985,12.372h7.008l-1.7-6.354H30.985ZM4,14.409V11.755H19.9v2.654ZM0,9.083V6.541H19.9V9.083ZM4,3.065V0H27.341V3.065Z"/>
  </g>
  <g id="Group_872" data-name="Group 872" transform="translate(7984.67 3557)">
    <rect id="Rectangle_533" data-name="Rectangle 533" class="cls-2" width="8.04" height="14.472" transform="translate(27.398 4.824)"/>
    <path id="Union_148" data-name="Union 148" class="cls-5" d="M24.463,25.416a5.141,5.141,0,0,1,.112-1.065H15.96a4.911,4.911,0,0,1,.112,1.065,5.551,5.551,0,1,1-11.1,0,5.125,5.125,0,0,1,.112-1.065H0V19.006H1.122V0H24.463V3.084H35.022l2.672,9.026v6.9h.879a.455.455,0,0,1,.448.448V23.9a.455.455,0,0,1-.448.449H35.452a4.911,4.911,0,0,1,.112,1.065,5.551,5.551,0,0,1-11.1,0Zm2.878,0a2.672,2.672,0,1,0,2.672-2.672A2.672,2.672,0,0,0,27.342,25.416Zm-19.492,0a2.672,2.672,0,1,0,2.672-2.672A2.672,2.672,0,0,0,7.849,25.416ZM28.107,12.372h7.009l-1.7-6.354H28.107Z"/>
  </g>
  <path id="Rectangle_535" data-name="Rectangle 535" class="cls-5" d="M3.256,0H141.268a0,0,0,0,1,0,0V6.512a0,0,0,0,1,0,0H3.256A3.256,3.256,0,0,1,0,3.256v0A3.256,3.256,0,0,1,3.256,0Z" transform="translate(7984.634 3587.333)"/>
  <path id="Rectangle_536" data-name="Rectangle 536" class="cls-3" d="M0,0H217.012a3.256,3.256,0,0,1,3.256,3.256v0a3.256,3.256,0,0,1-3.256,3.256H0a0,0,0,0,1,0,0V0A0,0,0,0,1,0,0Z" transform="translate(8125.634 3587.333)"/>
</svg>
