<svg id="Group_936" data-name="Group 936" xmlns="http://www.w3.org/2000/svg" viewBox="7903 3809 443.268 30.845">
  <defs>
    <style>
      .cls-1 {
        fill: #ececec;
      }

      .cls-2 {
        fill: #fff;
      }

      .cls-3 {
        fill: #717272;
      }
    </style>
  </defs>
  <rect id="Rectangle_592" data-name="Rectangle 592" class="cls-1" width="443.268" height="6.512" rx="3.256" transform="translate(7903 3833.333)"/>
  <g id="Group_932" data-name="Group 932" transform="translate(7885 3499)">
    <rect id="Rectangle_593" data-name="Rectangle 593" class="cls-2" width="28" height="15" transform="translate(414.081 313)"/>
    <g id="Group_931" data-name="Group 931" transform="translate(412.001 310)">
      <path id="Union_178" data-name="Union 178" class="cls-3" d="M21.636,20.113a4.1,4.1,0,0,1,.089-.843H14.907a3.826,3.826,0,0,1,.09.843,4.393,4.393,0,0,1-8.785,0A4.106,4.106,0,0,1,6.3,19.27H2.277V15.04H19.951V2.44H29.992l2.115,7.143V15.04h.7a.36.36,0,0,1,.355.355v3.52a.36.36,0,0,1-.355.355H30.332a3.9,3.9,0,0,1,.088.843,4.392,4.392,0,1,1-8.784,0Zm2.277,0A2.115,2.115,0,1,0,26.029,18,2.115,2.115,0,0,0,23.914,20.113Zm-15.424,0A2.115,2.115,0,1,0,10.6,18,2.115,2.115,0,0,0,8.49,20.113ZM24.52,9.79h5.546L28.72,4.761h-4.2ZM3.165,11.4V9.3H15.75v2.1ZM0,7.187V5.176H15.75V7.187ZM3.165,2.425V0H21.636V2.425Z" transform="translate(0 0)"/>
    </g>
  </g>
  <g id="Group_935" data-name="Group 935" transform="translate(7915.036 3809)">
    <rect id="Rectangle_601" data-name="Rectangle 601" class="cls-2" width="6.313" height="11.363" transform="translate(21.513 3.788)"/>
    <path id="Union_181" data-name="Union 181" class="cls-3" d="M19.208,19.957a4.037,4.037,0,0,1,.088-.836H12.532a3.856,3.856,0,0,1,.088.836,4.358,4.358,0,0,1-8.717,0,4.024,4.024,0,0,1,.088-.836H0v-4.2H.881V0H19.208V2.421H27.5l2.1,7.087v5.415h.69a.357.357,0,0,1,.352.352v3.492a.357.357,0,0,1-.352.353H27.837a3.856,3.856,0,0,1,.088.836,4.358,4.358,0,0,1-8.717,0Zm2.26,0a2.1,2.1,0,1,0,2.1-2.1A2.1,2.1,0,0,0,21.469,19.957Zm-15.305,0a2.1,2.1,0,1,0,2.1-2.1A2.1,2.1,0,0,0,6.163,19.957ZM22.07,9.714h5.5L26.237,4.725H22.07Z"/>
  </g>
</svg>
