<svg id="Group_843" data-name="Group 843" xmlns="http://www.w3.org/2000/svg" viewBox="7903 3354 443.634 36.845">
  <defs>
    <style>
      .cls-1 {
        fill: #ececec;
      }

      .cls-2 {
        fill: #b0d25a;
      }

      .cls-3 {
        fill: #fff;
      }
    </style>
  </defs>
  <rect id="Rectangle_347" data-name="Rectangle 347" class="cls-1" width="443.268" height="6.512" rx="3.256" transform="translate(7903.366 3384.333)"/>
  <rect id="Rectangle_352" data-name="Rectangle 352" class="cls-2" width="443.268" height="6.512" rx="3.256" transform="translate(7903 3384.333)"/>
  <g id="Group_781" data-name="Group 781" transform="translate(8294 3354)">
    <rect id="Rectangle_353" data-name="Rectangle 353" class="cls-3" width="35.375" height="18.491" transform="translate(4.02 1.608)"/>
    <g id="Group_780" data-name="Group 780" transform="translate(0 0)">
      <path id="Union_82" data-name="Union 82" class="cls-2" d="M27.341,25.416a5.132,5.132,0,0,1,.112-1.065H18.838a4.874,4.874,0,0,1,.112,1.065,5.55,5.55,0,1,1-11.1,0,5.181,5.181,0,0,1,.111-1.065H2.878V19.006H25.21V3.084H37.9l2.673,9.026v6.9h.878a.455.455,0,0,1,.448.449V23.9a.454.454,0,0,1-.448.449H38.33a4.874,4.874,0,0,1,.112,1.065,5.55,5.55,0,1,1-11.1,0Zm2.878,0a2.672,2.672,0,1,0,2.673-2.672A2.672,2.672,0,0,0,30.219,25.416Zm-19.492,0A2.672,2.672,0,1,0,13.4,22.744,2.672,2.672,0,0,0,10.727,25.416ZM30.985,12.372h7.008l-1.7-6.354H30.985ZM4,14.409V11.755H19.9v2.654ZM0,9.083V6.541H19.9V9.083ZM4,3.065V0H27.341V3.065Z"/>
    </g>
  </g>
  <g id="Group_782" data-name="Group 782" transform="translate(7911 3354)">
    <rect id="Rectangle_357" data-name="Rectangle 357" class="cls-3" width="8.04" height="14.472" transform="translate(27.398 4.824)"/>
    <path id="Union_83" data-name="Union 83" class="cls-2" d="M24.463,25.416a5.141,5.141,0,0,1,.112-1.065H15.96a4.911,4.911,0,0,1,.112,1.065,5.551,5.551,0,1,1-11.1,0,5.125,5.125,0,0,1,.112-1.065H0V19.006H1.122V0H24.463V3.084H35.022l2.672,9.026v6.9h.879a.455.455,0,0,1,.448.448V23.9a.455.455,0,0,1-.448.449H35.452a4.911,4.911,0,0,1,.112,1.065,5.551,5.551,0,0,1-11.1,0Zm2.878,0a2.672,2.672,0,1,0,2.672-2.672A2.672,2.672,0,0,0,27.342,25.416Zm-19.492,0a2.672,2.672,0,1,0,2.672-2.672A2.672,2.672,0,0,0,7.849,25.416ZM28.107,12.372h7.009l-1.7-6.354H28.107Z"/>
  </g>
</svg>
