<svg id="Group_65" data-name="Group 65" xmlns="http://www.w3.org/2000/svg" xmlns:xlink="http://www.w3.org/1999/xlink" viewBox="-2619 -509 480.5 127">
  <defs>
    <style>
      .cls-1 {
        fill: #009eff;
      }

      .cls-2 {
        opacity: 0.23;
      }

      .cls-3 {
        fill: #c1e8f8;
      }

      .cls-4 {
        fill: #a4def9;
      }

      .cls-5 {
        fill: #24242a;
      }

      .cls-6 {
        fill: #34425b;
      }

      .cls-10, .cls-6, .cls-7 {
        fill-rule: evenodd;
      }

      .cls-7 {
        fill: #5ea0cc;
      }

      .cls-8 {
        fill: #8bb03e;
      }

      .cls-10, .cls-11, .cls-9 {
        fill: #fff;
      }

      .cls-9 {
        font-size: 16px;
        font-family: HelveticaNeue, Helvetica Neue;
      }

      .cls-12 {
        fill: url(#linear-gradient);
      }

      .cls-13 {
        fill: none;
      }
    </style>
    <linearGradient id="linear-gradient" x1="0.054" y1="1.014" x2="0.896" y2="-0.117" gradientUnits="objectBoundingBox">
      <stop offset="0.05" stop-color="#709544"/>
      <stop offset="1" stop-color="#b0d35c"/>
    </linearGradient>
  </defs>
  <rect id="rectangle-6" class="cls-1" width="480" height="120" transform="translate(-2619 -509)"/>
  <g id="group" class="cls-2" transform="translate(-2618.78 -497.068)">
    <path id="path" class="cls-3" d="M27.185,47.683l-19.676.844L3.22,99.055l23.965.832H62.324V23H27.185Z" transform="translate(-3.22 -23)"/>
    <rect id="rectangle" class="cls-3" width="57.06" height="41.986" transform="translate(59.706 34.901)"/>
    <path id="path-2" data-name="path" class="cls-3" d="M121.5,65.368V39.67H96.83V96.157h49.8V65.368Z" transform="translate(20.562 -19.27)"/>
    <rect id="rectangle-2" data-name="rectangle" class="cls-4" width="38.449" height="5.643" transform="translate(13.97 70.058) rotate(-90)"/>
    <rect id="rectangle-3" data-name="rectangle" class="cls-4" width="38.449" height="5.643" transform="translate(4.427 70.058) rotate(-90)"/>
    <rect id="rectangle-4" data-name="rectangle" class="cls-3" width="4.615" height="7.342" transform="translate(126.961 13.057)"/>
    <rect id="rectangle-5" data-name="rectangle" class="cls-3" width="0.991" height="11.222" transform="translate(128.767 1.836)"/>
    <rect id="rectangle-6-2" data-name="rectangle" class="cls-4" width="29.031" height="5.507" transform="translate(26.812 13.559)"/>
    <rect id="rectangle-7" data-name="rectangle" class="cls-4" width="29.031" height="5.507" transform="translate(26.812 4.687)"/>
    <rect id="rectangle-8" data-name="rectangle" class="cls-4" width="29.031" height="5.507" transform="translate(26.812 32.123)"/>
    <rect id="rectangle-9" data-name="rectangle" class="cls-4" width="29.031" height="5.507" transform="translate(26.812 23.251)"/>
    <rect id="rectangle-10" data-name="rectangle" class="cls-4" width="20.002" height="2.178" transform="translate(119.549 23.826)"/>
    <rect id="rectangle-11" data-name="rectangle" class="cls-4" width="20.002" height="2.178" transform="translate(119.549 29.125)"/>
    <rect id="rectangle-12" data-name="rectangle" class="cls-4" width="20.002" height="2.178" transform="translate(119.549 34.411)"/>
    <rect id="rectangle-13" data-name="rectangle" class="cls-4" width="20.002" height="2.178" transform="translate(119.549 39.71)"/>
  </g>
  <g id="group-2" data-name="group" class="cls-2" transform="translate(-2451.589 -471.388)">
    <path id="path-3" data-name="path" class="cls-3" d="M18.282,39.439,5.916,40,3.22,73.652l15.062.554H40.367V23H18.282Z" transform="translate(-3.22 -23)"/>
    <rect id="rectangle-14" data-name="rectangle" class="cls-3" width="35.863" height="27.963" transform="translate(37.526 23.244)"/>
    <path id="path-4" data-name="path" class="cls-3" d="M112.334,56.785V39.67H96.83V77.29h31.3V56.785Z" transform="translate(-23.048 -26.084)"/>
    <rect id="rectangle-15" data-name="rectangle" class="cls-4" width="25.607" height="3.547" transform="translate(8.78 46.659) rotate(-90)"/>
    <rect id="rectangle-16" data-name="rectangle" class="cls-4" width="25.607" height="3.547" transform="translate(2.782 46.659) rotate(-90)"/>
    <rect id="rectangle-17" data-name="rectangle" class="cls-3" width="2.901" height="4.89" transform="translate(79.796 8.696)"/>
    <rect id="rectangle-18" data-name="rectangle" class="cls-3" width="0.623" height="7.474" transform="translate(80.931 1.223)"/>
    <rect id="rectangle-19" data-name="rectangle" class="cls-4" width="18.247" height="3.668" transform="translate(16.851 9.03)"/>
    <rect id="rectangle-20" data-name="rectangle" class="cls-4" width="18.247" height="3.668" transform="translate(16.851 3.121)"/>
    <rect id="rectangle-21" data-name="rectangle" class="cls-4" width="18.247" height="3.668" transform="translate(16.851 21.394)"/>
    <rect id="rectangle-22" data-name="rectangle" class="cls-4" width="18.247" height="3.668" transform="translate(16.851 15.485)"/>
    <rect id="rectangle-23" data-name="rectangle" class="cls-4" width="12.572" height="1.451" transform="translate(75.138 15.868)"/>
    <rect id="rectangle-24" data-name="rectangle" class="cls-4" width="12.572" height="1.451" transform="translate(75.138 19.397)"/>
    <rect id="rectangle-25" data-name="rectangle" class="cls-4" width="12.572" height="1.451" transform="translate(75.138 22.918)"/>
    <rect id="rectangle-26" data-name="rectangle" class="cls-4" width="12.572" height="1.451" transform="translate(75.138 26.447)"/>
  </g>
  <rect id="rectangle-35" class="cls-5" width="480" height="30.852" transform="translate(-2619 -419.521)"/>
  <g id="group-3" data-name="group" class="cls-2" transform="translate(-2309.812 -487.671)">
    <path id="path-5" data-name="path" class="cls-3" d="M27.7,44.666l-20.1.741L3.22,89.759l24.484.73H63.6V23H27.7Z" transform="translate(-3.22 -23)"/>
    <rect id="rectangle-27" data-name="rectangle" class="cls-3" width="58.296" height="36.855" transform="translate(60.999 30.635)"/>
    <path id="path-6" data-name="path" class="cls-3" d="M122.032,62.227V39.67H96.83V89.253h50.877V62.227Z" transform="translate(23.105 -21.764)"/>
    <rect id="rectangle-28" data-name="rectangle" class="cls-4" width="33.75" height="5.765" transform="translate(14.273 61.496) rotate(-90)"/>
    <rect id="rectangle-29" data-name="rectangle" class="cls-4" width="33.75" height="5.765" transform="translate(4.523 61.496) rotate(-90)"/>
    <rect id="rectangle-30" data-name="rectangle" class="cls-3" width="4.715" height="6.445" transform="translate(129.711 11.461)"/>
    <rect id="rectangle-31" data-name="rectangle" class="cls-3" width="1.012" height="9.85" transform="translate(131.556 1.611)"/>
    <rect id="rectangle-32" data-name="rectangle" class="cls-4" width="29.66" height="4.834" transform="translate(27.392 11.902)"/>
    <rect id="rectangle-33" data-name="rectangle" class="cls-4" width="29.66" height="4.834" transform="translate(27.392 4.114)"/>
    <rect id="rectangle-34" data-name="rectangle" class="cls-4" width="29.66" height="4.834" transform="translate(27.392 28.197)"/>
    <rect id="rectangle-35-2" data-name="rectangle" class="cls-4" width="29.66" height="4.834" transform="translate(27.392 20.409)"/>
    <rect id="rectangle-36" data-name="rectangle" class="cls-4" width="20.435" height="1.912" transform="translate(122.139 20.914)"/>
    <rect id="rectangle-37" data-name="rectangle" class="cls-4" width="20.435" height="1.912" transform="translate(122.139 25.565)"/>
    <rect id="rectangle-38" data-name="rectangle" class="cls-4" width="20.435" height="1.912" transform="translate(122.139 30.206)"/>
    <rect id="rectangle-39" data-name="rectangle" class="cls-4" width="20.435" height="1.912" transform="translate(122.139 34.857)"/>
  </g>
  <g id="group-4" data-name="group" class="cls-2" transform="translate(-2346.508 -453.388)">
    <path id="path-7" data-name="path" class="cls-3" d="M17.528,33.868,5.781,34.24,3.22,56.489l14.309.366h20.98V23H17.528Z" transform="translate(-3.22 -23)"/>
    <rect id="rectangle-40" data-name="rectangle" class="cls-3" width="0.592" height="7.474" transform="translate(76.881 1.223)"/>
    <rect id="rectangle-41" data-name="rectangle" class="cls-4" width="17.333" height="3.668" transform="translate(16.008 9.03)"/>
    <rect id="rectangle-42" data-name="rectangle" class="cls-4" width="17.333" height="3.668" transform="translate(16.008 3.121)"/>
    <rect id="rectangle-43" data-name="rectangle" class="cls-4" width="17.333" height="3.668" transform="translate(16.008 21.394)"/>
    <rect id="rectangle-44" data-name="rectangle" class="cls-4" width="17.333" height="3.668" transform="translate(16.008 15.485)"/>
  </g>
  <g id="group-197" transform="translate(-2591 -563)">
    <path id="path-8" data-name="path" class="cls-6" d="M431.438,314.01h-11.2a1.95,1.95,0,0,1-2.013-1.894V301.732a1.95,1.95,0,0,1,2.013-1.894h11.3a1.95,1.95,0,0,1,2.013,1.894v10.4a2.115,2.115,0,0,1-2.1,1.894" transform="translate(-82.727 -169.835)"/>
    <path id="path-9" data-name="path" class="cls-7" d="M432.458,316.936c-1.2,0-1.006.569-1.006.851,0,.094,0,.094-.1.188l-1.1-4.07a.628.628,0,0,0-.6-.475h-9.988a.734.734,0,0,0-.6.475l-1.1,4.07a.327.327,0,0,1-.1-.188c0-.282.2-.851-1.006-.851s-1.1.569-1.1,1.044c0,.376.8.376,1.006.376a3.974,3.974,0,0,1,1.1,0l-.2.851h.3v2.27h-.579v-2.27h-.6a.628.628,0,0,0-.6.569v5.218a.628.628,0,0,0,.6.569h.6V326.7a1.2,1.2,0,0,0,2.4,0v-1.138h9.8V326.7a1.2,1.2,0,0,0,2.4,0v-1.138h.6a.628.628,0,0,0,.6-.569v-5.218a.628.628,0,0,0-.6-.569h-.6v2.27h-.6v-2.27h.3l-.2-.851a4.207,4.207,0,0,1,1.1,0c.2,0,1.006.094,1.006-.376s.1-1.044-1.1-1.044M418.6,324.977a1.125,1.125,0,0,1-.994-1.2,1.1,1.1,0,1,1,2.192.063,1.18,1.18,0,0,1-1.2,1.138m8.5-.663h-4.9v-1.138h4.9Zm2.013-6.81h-9.349a.4.4,0,0,1-.345-.174.436.436,0,0,1-.052-.395l.5-2.176a.628.628,0,0,1,.6-.475h7.99a.628.628,0,0,1,.6.475l.4,2.176a.436.436,0,0,1-.052.395.4.4,0,0,1-.345.174m2.9,6.262a1.257,1.257,0,0,1-.666,1.228,1.17,1.17,0,0,1-1.345-.2,1.279,1.279,0,0,1-.309-1.372,1.2,1.2,0,0,1,1.121-.8,1.18,1.18,0,0,1,1.2,1.138" transform="translate(-81.497 -176.336)"/>
    <path id="path-10" data-name="path" class="cls-8" d="M427.89,307.27l.4-.376.2.282a2.111,2.111,0,0,0-.6,1.138c3.9,1.044,4.9-2.933,4.9-2.933.3-.85.7-.944.7-.944-4.2-.475-5.3,1.607-5.6,2.839m2.2-1.607a6.054,6.054,0,0,1,.8-.381l.1.094a2.545,2.545,0,0,0-.7.376l-.2-.094Zm0,.188a3.046,3.046,0,0,0-.7.475l-.1-.188a4.216,4.216,0,0,1,.7-.475Zm-1.7.929a4.3,4.3,0,0,1,.7-.569l.1.188-.6.569Zm2.7-1.513a1.17,1.17,0,0,1,.8-.282s-.3.094-.8.282" transform="translate(-87.526 -172.003)"/>
  </g>
  <g id="group-186" transform="translate(-2511 -563)">
    <path id="path-11" data-name="path" class="cls-6" d="M393.048,314.009H381.853a1.95,1.95,0,0,1-2.012-1.894V301.732a1.95,1.95,0,0,1,2.012-1.894h11.3a1.95,1.95,0,0,1,2.013,1.894v10.4a2.114,2.114,0,0,1-2.1,1.894" transform="translate(-74.213 -169.835)"/>
    <path id="path-12" data-name="path" class="cls-7" d="M394.067,316.936c-1.2,0-1.006.569-1.006.85,0,.094,0,.094-.1.188l-1.1-4.07a.628.628,0,0,0-.6-.475h-9.987a.734.734,0,0,0-.6.475l-1.1,4.07a.328.328,0,0,1-.1-.188c0-.282.2-.85-1.006-.85s-1.1.569-1.1,1.044c0,.376.8.376,1.006.376a3.971,3.971,0,0,1,1.1,0l-.2.851h.3v2.27h-.6v-2.27h-.6a.628.628,0,0,0-.6.569v5.218a.628.628,0,0,0,.6.569h.6V326.7a1.2,1.2,0,0,0,2.4,0v-1.137h9.791V326.7a1.2,1.2,0,0,0,2.4,0v-1.137h.6a.628.628,0,0,0,.6-.569v-5.218a.628.628,0,0,0-.6-.569h-.6v2.27h-.6v-2.27h.3l-.2-.851a4.21,4.21,0,0,1,1.1,0c.2,0,1.006.094,1.006-.376s.1-1.044-1.1-1.044m-13.892,8.04a1.125,1.125,0,0,1-.994-1.2,1.1,1.1,0,1,1,2.192.063,1.18,1.18,0,0,1-1.2,1.137m8.5-.663h-4.916v-1.137h4.9v1.137ZM390.7,317.5h-9.328a.4.4,0,0,1-.345-.174.435.435,0,0,1-.052-.395l.5-2.176a.628.628,0,0,1,.6-.475h7.995a.628.628,0,0,1,.6.475l.4,2.176a.436.436,0,0,1-.052.395.4.4,0,0,1-.345.174m2.9,6.261a1.257,1.257,0,0,1-.666,1.228,1.17,1.17,0,0,1-1.344-.2,1.279,1.279,0,0,1-.309-1.372,1.2,1.2,0,0,1,1.121-.8,1.18,1.18,0,0,1,1.2,1.137" transform="translate(-72.983 -176.337)"/>
    <path id="path-13" data-name="path" class="cls-8" d="M389.5,307.27l.4-.376.2.282a2.11,2.11,0,0,0-.6,1.137c3.9,1.044,4.9-2.932,4.9-2.932.3-.85.7-.944.7-.944-4.2-.475-5.3,1.607-5.595,2.838m2.2-1.607a6.056,6.056,0,0,1,.8-.381l.1.094a2.546,2.546,0,0,0-.7.376l-.2-.094Zm0,.188a3.041,3.041,0,0,0-.7.475l-.1-.188a4.229,4.229,0,0,1,.7-.475Zm-1.7.929a4.3,4.3,0,0,1,.7-.569l.1.188-.6.569Zm2.7-1.513a1.17,1.17,0,0,1,.8-.282s-.3.094-.8.282" transform="translate(-79.012 -172.003)"/>
  </g>
  <g id="group-185" transform="translate(-2550.33 -550.343)">
    <path id="path-14" data-name="path" class="cls-6" d="M362.858,325.079H342.924a3.473,3.473,0,0,1-3.584-3.373V303.213a3.473,3.473,0,0,1,3.584-3.373h20.114a3.472,3.472,0,0,1,3.584,3.373v18.53a3.765,3.765,0,0,1-3.736,3.373" transform="translate(-64.257 -169.836)"/>
    <path id="path-15" data-name="path" class="cls-7" d="M366.606,319.675c-2.132,0-1.792,1.013-1.792,1.515,0,.167,0,.167-.179.335l-1.962-7.249a1.119,1.119,0,0,0-1.066-.846H343.822a1.308,1.308,0,0,0-1.066.846l-1.953,7.249a.583.583,0,0,1-.179-.335c0-.5.358-1.515-1.792-1.515s-1.962,1.013-1.962,1.859c0,.669,1.424.669,1.792.669a7.079,7.079,0,0,1,1.962,0l-.358,1.515h.538v4.042h-1.066v-4.042H338.67a1.119,1.119,0,0,0-1.066,1.013v9.293a1.119,1.119,0,0,0,1.066,1.013h1.066v2.026a2.138,2.138,0,0,0,4.273,0v-2.026h17.435v2.026a2.138,2.138,0,0,0,4.274,0v-2.026h1.066a1.119,1.119,0,0,0,1.066-1.013V324.73a1.119,1.119,0,0,0-1.066-1.013h-1.066v4.042h-1.066v-4.042h.538l-.358-1.515a7.491,7.491,0,0,1,1.962,0c.358,0,1.792.167,1.792-.669s.179-1.859-1.953-1.859M341.9,334a2,2,0,0,1-1.77-2.138,1.952,1.952,0,1,1,3.9.113A2.1,2.1,0,0,1,341.9,334m15.132-1.18h-8.753v-2.026h8.718v2.026Zm3.584-12.127H344a.718.718,0,0,1-.615-.31.777.777,0,0,1-.093-.7l.9-3.875a1.119,1.119,0,0,1,1.066-.846h14.237a1.119,1.119,0,0,1,1.066.846l.708,3.875a.777.777,0,0,1-.093.7.718.718,0,0,1-.615.31m5.161,11.151a2.238,2.238,0,0,1-1.185,2.187,2.083,2.083,0,0,1-2.394-.354,2.278,2.278,0,0,1-.549-2.443,2.145,2.145,0,0,1,2-1.416,2.1,2.1,0,0,1,2.132,2.026" transform="translate(-64 -170.797)"/>
    <path id="path-16" data-name="path" class="cls-8" d="M349,309.537l.708-.669.358.5A3.757,3.757,0,0,0,349,311.4c6.943,1.859,8.717-5.223,8.717-5.223.538-1.515,1.245-1.682,1.245-1.682-7.472-.846-9.434,2.862-9.963,5.055m3.915-2.862a10.788,10.788,0,0,1,1.424-.678l.179.167a4.532,4.532,0,0,0-1.245.669l-.358-.167Zm0,.335a5.406,5.406,0,0,0-1.245.846l-.179-.334a7.528,7.528,0,0,1,1.245-.846Zm-3.019,1.654a7.647,7.647,0,0,1,1.245-1.013l.179.335-1.066,1.013Zm4.8-2.695a2.084,2.084,0,0,1,1.425-.5s-.538.167-1.425.5" transform="translate(-65.263 -170.156)"/>
  </g>
  <text id="SPLASH_SCREEN" data-name="SPLASH SCREEN" class="cls-9" transform="translate(-2553 -453)"><tspan x="0" y="0">wishes you a safe drive</tspan></text>
  <path id="path-17" data-name="path" class="cls-10" d="M27.688,97.42l2.156.144-.459,5.849-2.755-.181Z" transform="matrix(0.996, -0.087, 0.087, 0.996, -2273.83, -499.626)"/>
  <g id="group-88" transform="translate(-2576.997 -499.127)">
    <path id="path-18" data-name="path" class="cls-11" d="M21.238,35.683a20.041,20.041,0,0,1-.674,5.972,8.045,8.045,0,0,1-2.119,3.275,8.542,8.542,0,0,1-3.371,2.023,12.41,12.41,0,0,1-4.335.674c-5.3,0-8.862-2.264-10.644-6.743H3.37q2.167,3.9,7.224,3.9a8.886,8.886,0,0,0,4.142-.915,5.532,5.532,0,0,0,2.6-2.408,11.139,11.139,0,0,0,.771-4.624v-.193a9.6,9.6,0,0,1-3.516,2.5,11,11,0,0,1-4.286.867,10.064,10.064,0,0,1-7.417-3.034A9.413,9.413,0,0,1,0,29.951a9.593,9.593,0,0,1,3.131-7.369,10.407,10.407,0,0,1,7.465-3.034,9.932,9.932,0,0,1,7.561,3.516V20.078h3.131v15.6Zm-2.986-5.731a7.007,7.007,0,0,0-2.167-5.3,7.271,7.271,0,0,0-5.25-2.119A7.518,7.518,0,0,0,5.3,24.8a7.216,7.216,0,0,0-2.215,5.25A6.836,6.836,0,0,0,5.2,35.1a7.484,7.484,0,0,0,5.491,2.071,7.534,7.534,0,0,0,5.442-2.023A6.931,6.931,0,0,0,18.252,29.951Zm14.69-9.584-1.589,2.6a2.451,2.451,0,0,0-1.252-.337,2.731,2.731,0,0,0-2.119,1.156,7.476,7.476,0,0,0-1.4,2.986,33.36,33.36,0,0,0-.482,6.695v6.983H22.972V20.078H26.1v2.215a8.937,8.937,0,0,1,1.878-2.071,3.732,3.732,0,0,1,2.167-.674A5.56,5.56,0,0,1,32.941,20.367Zm21.1,10.451H36.12a7.829,7.829,0,0,0,2.264,5.394,6.875,6.875,0,0,0,4.961,2.023c3.275,0,5.779-1.589,7.513-4.816l2.6,1.349a12.942,12.942,0,0,1-4.142,4.816,10.107,10.107,0,0,1-5.731,1.541,10.032,10.032,0,0,1-7.61-3.179,10.822,10.822,0,0,1-2.986-7.61,10.693,10.693,0,0,1,3.034-7.658A9.866,9.866,0,0,1,43.489,19.5a10.1,10.1,0,0,1,7.465,3.034A11.592,11.592,0,0,1,54.036,30.818Zm-3.42-2.745a6.56,6.56,0,0,0-2.553-4.094,7.509,7.509,0,0,0-4.575-1.445c-3.516,0-5.828,1.83-6.984,5.539Zm26.1,2.745H58.8a7.828,7.828,0,0,0,2.264,5.394,6.875,6.875,0,0,0,4.961,2.023c3.275,0,5.78-1.589,7.513-4.816l2.6,1.349A12.943,12.943,0,0,1,72,39.584,10.984,10.984,0,0,1,58.66,37.946a10.822,10.822,0,0,1-2.986-7.61,10.693,10.693,0,0,1,3.034-7.658A9.866,9.866,0,0,1,66.173,19.5a10.1,10.1,0,0,1,7.465,3.034A12.021,12.021,0,0,1,76.721,30.818Zm-3.468-2.745A6.56,6.56,0,0,0,70.7,23.979a7.509,7.509,0,0,0-4.575-1.445c-3.516,0-5.828,1.83-6.984,5.539ZM97.142,40.451H94.059V30.722a19.234,19.234,0,0,0-.337-4.575,6.283,6.283,0,0,0-.915-2.071,3.7,3.7,0,0,0-1.589-1.252,5.5,5.5,0,0,0-2.312-.433,6.2,6.2,0,0,0-2.7.674,6.488,6.488,0,0,0-2.264,1.878,7.136,7.136,0,0,0-1.3,2.553,26.112,26.112,0,0,0-.337,5.394v7.561H79.177V20.078h3.131v3.034A9.141,9.141,0,0,1,89.484,19.5a7.187,7.187,0,0,1,4,1.156,7.093,7.093,0,0,1,2.7,3.131,16.24,16.24,0,0,1,.915,6.165v10.5Z" transform="translate(0 -10.145)"/>
    <path id="path-19" data-name="path" class="cls-11" d="M209,13.458h2.553v3.468a7.939,7.939,0,0,1,6.839-3.949,6.649,6.649,0,0,1,3.949,1.252,6.3,6.3,0,0,1,2.36,3.516,9.482,9.482,0,0,1,3.131-3.564,7.917,7.917,0,0,1,4.383-1.252,6.4,6.4,0,0,1,4.527,1.926c1.349,1.3,2.023,3.8,2.023,7.61V33.349h-2.6V22.512a16.714,16.714,0,0,0-.337-4.046,4.136,4.136,0,0,0-1.445-2.167,4.781,4.781,0,0,0-2.986-.867,5.578,5.578,0,0,0-3.468,1.252,6.273,6.273,0,0,0-2.215,3.131,21.214,21.214,0,0,0-.578,5.779v7.754h-2.5V23.187a19.829,19.829,0,0,0-.337-4.527A4.021,4.021,0,0,0,220.8,16.4a4.375,4.375,0,0,0-2.842-.915,5.644,5.644,0,0,0-3.179,1.011,7,7,0,0,0-2.312,2.7c-.578,1.156-.819,3.082-.819,5.828v8.332H209Zm32.269-5.539a2,2,0,0,1,.626-1.493,2,2,0,0,1,1.493-.626,1.931,1.931,0,0,1,1.493.626,2,2,0,0,1,.626,1.493,1.931,1.931,0,0,1-.626,1.493,2,2,0,0,1-1.493.626,1.931,1.931,0,0,1-1.493-.626A2,2,0,0,1,241.269,7.919Zm.819,5.539h2.6V33.349h-2.6Zm5.78-7.658h2.552V33.349h-2.552Zm15.364,25.863a8.094,8.094,0,0,0,7.562-4.768L272.96,28c-2.167,4-5.3,5.972-9.536,5.972a9.705,9.705,0,0,1-7.417-3.082,10.531,10.531,0,0,1-2.938-7.417,10.438,10.438,0,0,1,2.938-7.465,9.654,9.654,0,0,1,7.272-3.131,9.99,9.99,0,0,1,7.273,2.89,10.669,10.669,0,0,1,3.034,7.85H255.669a8.275,8.275,0,0,0,2.264,5.779,7.11,7.11,0,0,0,5.3,2.264ZM270.792,21.5a7.1,7.1,0,0,0-2.6-4.479,7.721,7.721,0,0,0-4.816-1.589c-3.757,0-6.213,2.023-7.321,6.068Z" transform="translate(-108.342 -3.044)"/>
    <path id="path-20" data-name="path" class="cls-12" d="M344.527,19.517c.722-.674,1.589-1.493,2.649-2.408l1.348,1.83a30.282,30.282,0,0,0-4.624,7.513c25.719,8.766,33.714-18.928,33.714-18.928,2.071-6.213,5.105-6.791,5.105-6.791C355.315-3.6,347.031,10.559,344.527,19.517ZM360.179,8.391a47.116,47.116,0,0,1,5.3-2.215l.482.626a55.215,55.215,0,0,0-5.153,2.5ZM359.6,9.932a51.944,51.944,0,0,0-4.672,3.082l-.77-1.156c1.493-.963,3.082-1.926,4.816-2.842Zm-11.318,6.261c1.348-1.108,2.938-2.36,4.72-3.564l.867,1.2a39.135,39.135,0,0,0-4.431,4.094Zm18.783-9.825-.385-.53a35.1,35.1,0,0,1,5.924-1.3A30.16,30.16,0,0,0,367.066,6.368Z" transform="translate(-178.271 0)"/>
  </g>
  <g id="group-184" transform="translate(-2470 -571.521)">
    <path id="path-21" data-name="path" class="cls-6" d="M358.248,320.126H342.221a2.792,2.792,0,0,1-2.881-2.711V302.551a2.792,2.792,0,0,1,2.881-2.711h16.17a2.792,2.792,0,0,1,2.881,2.711v14.894a3.027,3.027,0,0,1-3,2.711" transform="translate(-97.692 -154.836)"/>
    <path id="path-22" data-name="path" class="cls-7" d="M360.775,318.449c-1.714,0-1.441.814-1.441,1.218,0,.135,0,.135-.144.269l-1.577-5.826a.9.9,0,0,0-.857-.68h-14.3a1.051,1.051,0,0,0-.857.68l-1.57,5.826a.468.468,0,0,1-.144-.269c0-.4.288-1.218-1.441-1.218s-1.577.814-1.577,1.494c0,.538,1.145.538,1.441.538a5.688,5.688,0,0,1,1.577,0L339.6,321.7h.432v3.249h-.857V321.7h-.857a.9.9,0,0,0-.857.814v7.469a.9.9,0,0,0,.857.814h.857v1.628a1.719,1.719,0,0,0,3.436,0V330.8h14.017v1.628a1.719,1.719,0,0,0,3.436,0V330.8h.857a.9.9,0,0,0,.857-.814v-7.469a.9.9,0,0,0-.857-.814h-.857v3.249H359.2V321.7h.432l-.288-1.218a6.023,6.023,0,0,1,1.577,0c.288,0,1.44.134,1.44-.538s.144-1.494-1.57-1.494M340.91,329.96a1.611,1.611,0,0,1-1.423-1.719,1.569,1.569,0,1,1,3.138.091,1.689,1.689,0,0,1-1.714,1.628m12.166-.949h-7.037v-1.628h7.008v1.628Zm2.881-9.748H342.6a.577.577,0,0,1-.494-.25.624.624,0,0,1-.075-.565l.72-3.115a.9.9,0,0,1,.857-.68h11.445a.9.9,0,0,1,.857.68l.569,3.115a.624.624,0,0,1-.075.565.577.577,0,0,1-.494.25m4.149,8.963a1.8,1.8,0,0,1-.953,1.758,1.674,1.674,0,0,1-1.925-.284,1.831,1.831,0,0,1-.442-1.963,1.724,1.724,0,0,1,1.6-1.138,1.689,1.689,0,0,1,1.714,1.628" transform="translate(-97 -158.275)"/>
    <path id="path-23" data-name="path" class="cls-8" d="M349,308.522l.569-.538.288.4a3.022,3.022,0,0,0-.857,1.628c5.582,1.494,7.008-4.2,7.008-4.2.432-1.218,1-1.352,1-1.352-6.007-.68-7.584,2.3-8.009,4.063m3.148-2.3a8.676,8.676,0,0,1,1.145-.545l.144.134a3.644,3.644,0,0,0-1,.538l-.288-.135Zm0,.269a4.344,4.344,0,0,0-1,.68l-.144-.269a6.055,6.055,0,0,1,1-.68Zm-2.427,1.329a6.144,6.144,0,0,1,1-.814l.144.269-.857.814Zm3.861-2.166a1.676,1.676,0,0,1,1.145-.4s-.432.134-1.145.4" transform="translate(-100.394 -155.982)"/>
  </g>
  <line id="line-8" class="cls-13" x2="480" transform="translate(-2618.5 -389.5)"/>
</svg>
