<svg xmlns="http://www.w3.org/2000/svg" viewBox="-329.5 -799.275 47.879 47.879">
  <defs>
    <style>
      .cls-1 {
        fill: #fefdff;
      }

      .cls-2 {
        fill: none;
        stroke: #fffcff;
        stroke-width: 1px;
      }
    </style>
  </defs>
  <g id="group-3" transform="translate(-329.5 -799.275)">
    <path id="path" class="cls-1" d="M18.332,6.25h0c-.411,0-.822-.206-.822-.617h0a23.659,23.659,0,0,0-2.467,5.14h0a22.773,22.773,0,0,0-.411,3.907h0c-.617,0-1.234.617-1.028,2.262h0A2.528,2.528,0,0,0,15.042,19.2h0a12.975,12.975,0,0,0,1.645,4.729h0a4.133,4.133,0,0,1,.822,1.645h0c-.206.206-.411.411-.411.617h0a1.745,1.745,0,0,1-1.645,1.439h0c-1.028.206-2.879,1.028-4.935,1.645h0C8.463,29.9,2.5,30.512,2.5,31.54h0v2.673h0a16.821,16.821,0,0,0,5.14,4.112l4.935,3.907,17.682.411c4.112-4.729,10.692-7.4,11.1-8.224h0V31.746h0c0-1.028-5.963-1.85-7.813-2.467h0c-2.056-.617-3.907-1.439-4.935-1.645h0a1.992,1.992,0,0,1-1.645-1.439h0c0-.206-.206-.411-.411-.617h0c0-.617.411-1.028.822-1.645h0A12.975,12.975,0,0,0,29.024,19.2h0a1.894,1.894,0,0,0,1.439-2.262h0c.206-1.645-.411-2.056-1.028-2.262h0c0-4.523-1.645-8.636-6.168-9.047h0A6.769,6.769,0,0,1,19.36,4.4h0a3.474,3.474,0,0,0-.617,2.056m4.523-.822Z" transform="translate(2.112 4.119)"/>
    <circle id="ellipse" class="cls-2" cx="23.439" cy="23.439" r="23.439" transform="translate(0.5 0.5)"/>
  </g>
</svg>
