<svg xmlns="http://www.w3.org/2000/svg" viewBox="2778.5 3735.725 38.829 38.829">
  <defs>
    <style>
      .cls-1 {
        fill: #c0bfbf;
      }

      .cls-2 {
        fill: none;
        stroke: #c0bfbf;
      }
    </style>
  </defs>
  <g id="group-3" transform="translate(2778.5 3735.725)">
    <g id="Group_878" data-name="Group 878">
      <path id="path" class="cls-1" d="M15.276,5.871h0c-.332,0-.664-.163-.664-.49h0a18.7,18.7,0,0,0-1.991,4.087h0a17.853,17.853,0,0,0-.332,3.106h0c-.5,0-1,.49-.83,1.8h0a2.009,2.009,0,0,0,1.161,1.8h0a10.218,10.218,0,0,0,1.327,3.76h0a3.268,3.268,0,0,1,.664,1.308h0c-.166.163-.332.327-.332.49h0a1.4,1.4,0,0,1-1.327,1.144h0c-.83.163-2.323.817-3.982,1.308h0c-1.659.49-6.471.981-6.471,1.8h0v2.125h0c1.161,1.308,2.489,2.452,8.13,6.376l7.464,1.447,6.8-1.12c1.069-1.211,2.92-1.644,4.358-2.662,2.408-1.707,4.274-3.435,4.285-3.878,0-.817.317-1.635.317-2.125h0c0-.817-4.812-1.471-6.3-1.962h0c-1.659-.49-3.152-1.144-3.982-1.308h0a1.6,1.6,0,0,1-1.327-1.144h0c0-.163-.166-.327-.332-.49h0c0-.49.332-.817.664-1.308h0a10.218,10.218,0,0,0,1.327-3.76h0a1.506,1.506,0,0,0,1.161-1.8h0c.166-1.308-.332-1.635-.83-1.8h0c0-3.6-1.327-6.867-4.978-7.194h0A5.519,5.519,0,0,1,16.105,4.4h0a2.734,2.734,0,0,0-.5,1.635m3.65-.654Z" transform="translate(1.318 2.571)"/>
      <circle id="ellipse" class="cls-2" cx="18.915" cy="18.915" r="18.915" transform="translate(0.5 0.5)"/>
    </g>
  </g>
</svg>
