<?xml version="1.0" encoding="UTF-8"?>
<svg version="1.1" viewBox="0 0 94.777527 35.529762" xmlns="http://www.w3.org/2000/svg" xmlns:cc="http://creativecommons.org/ns#" xmlns:dc="http://purl.org/dc/elements/1.1/" xmlns:rdf="http://www.w3.org/1999/02/22-rdf-syntax-ns#">
<metadata>
<rdf:RDF>
<cc:Work rdf:about="">
<dc:format>image/svg+xml</dc:format>
<dc:type rdf:resource="http://purl.org/dc/dcmitype/StillImage"/>
</cc:Work>
</rdf:RDF>
</metadata>
<g transform="translate(-97.518 -136.08)">
<rect x="97.518" y="136.08" width="94.683" height="35.53" ry="1.9841" fill="#fff" stroke-width=".25674"/>
<rect x="97.612" y="136.36" width="94.683" height="11.056" ry="0" fill="#1a1a1a" stroke-width=".14321"/>
<rect x="97.518" y="164.42" width="94.683" height="7.1816" ry="0" fill="#ececec" stroke-width=".11543"/>
<text x="115.03748" y="143.83719" fill="#ffffff" font-family="sans-serif" font-size="8.9023px" letter-spacing="0px" stroke-width=".22256" word-spacing="0px" style="line-height:1.25" xml:space="preserve"><tspan x="115.03748" y="143.83719" dx="-9.9341593" fill="#ffffff" font-family="Roboto" font-size="5.3414px" font-weight="500" stroke-width=".22256">GREENMILE</tspan></text>
<text x="186.33276" y="144.25305" fill="#b3b3b3" font-family="sans-serif" font-size="11.991px" letter-spacing="0px" stroke-width=".29977" word-spacing="0px" style="line-height:1.25" xml:space="preserve"><tspan x="186.33276" y="144.25305" fill="#b3b3b3" font-family="Roboto" font-size="7.1944px" font-weight="500" stroke-width=".29977">1</tspan></text>
<text x="99.463295" y="152.23799" fill="#808080" font-family="sans-serif" font-size="5.9272px" letter-spacing="0px" stroke-width=".14818" word-spacing="0px" style="line-height:1.25" xml:space="preserve"><tspan x="99.463295" y="152.23799" fill="#808080" font-family="Roboto" font-size="3.5563px" font-weight="500" stroke-width=".14818">5736 Semoran Blvd., Orlando, FL</tspan></text>
<g transform="translate(3.9287 -.17009)">
<g transform="translate(3.5413 5.1203)">
<text x="99.925285" y="157.17451" fill="#b3b3b3" font-family="sans-serif" font-size="14.105px" letter-spacing="0px" stroke-width=".35263" word-spacing="0px" style="line-height:1.25" xml:space="preserve"><tspan x="99.925285" y="157.17451" fill="#b3b3b3" font-family="Roboto" font-size="8.4632px" font-weight="500" stroke-width=".35263">4</tspan></text>
<path d="m107.55 156-1.6392-0.42357v1.013l1.7681 0.44196v-1.5103h-0.0184zm2.8-2.3759-1.9527-0.49725-0.64462 0.71841 1.9524 0.49725zm-2.5238 1.897l-0.0184 1.5288 1.7681-0.44195v-1.013l-1.6208 0.42357zm-0.0734-0.66312-1.9526-0.51552-0.25697 0.97612 1.9524 0.51576 0.25696-0.95772 0.25697 0.95772 1.9524-0.51576-0.25697-0.97612zm0-1.013-0.62647-0.71817-1.9524 0.49725 0.62623 0.71841z" fill="#b0d25a" stroke-width=".1226"/>
</g>
<g transform="translate(33.839 5.1637)">
<text x="99.925285" y="157.17451" fill="#b3b3b3" font-family="sans-serif" font-size="14.105px" letter-spacing="0px" stroke-width=".35263" word-spacing="0px" style="line-height:1.25" xml:space="preserve"><tspan x="99.925285" y="157.17451" fill="#b3b3b3" font-family="Roboto" font-size="8.4632px" font-weight="500" stroke-width=".35263">22</tspan></text>
<path d="m112.94 156-1.6392-0.42357v1.013l1.7681 0.44196v-1.5103h-0.0184zm2.8-2.3759-1.9527-0.49725-0.64462 0.71841 1.9524 0.49725zm-2.5238 1.897l-0.0184 1.5288 1.7681-0.44195v-1.013l-1.6208 0.42357zm-0.0734-0.66312-1.9526-0.51552-0.25697 0.97612 1.9524 0.51576 0.25696-0.95772 0.25697 0.95772 1.9524-0.51576-0.25697-0.97612zm0-1.013-0.62647-0.71817-1.9524 0.49725 0.62623 0.71841z" fill="#b0d25a" stroke-width=".1226"/>
</g>
<g transform="translate(63.994 5.1637)">
<text x="99.925285" y="157.17451" fill="#b3b3b3" font-family="sans-serif" font-size="14.105px" letter-spacing="0px" stroke-width=".35263" word-spacing="0px" style="line-height:1.25" xml:space="preserve"><tspan x="99.925285" y="157.17451" fill="#b3b3b3" font-family="Roboto" font-size="8.4632px" font-weight="500" stroke-width=".35263">11</tspan></text>
<path d="m111.52 156-1.6392-0.42357v1.013l1.7681 0.44196v-1.5103h-0.0184zm2.8-2.3759-1.9527-0.49725-0.64462 0.71841 1.9524 0.49725zm-2.5238 1.897l-0.0184 1.5288 1.7681-0.44195v-1.013l-1.6208 0.42357zm-0.0734-0.66312-1.9526-0.51552-0.25697 0.97612 1.9524 0.51576 0.25696-0.95772 0.25697 0.95772 1.9524-0.51576-0.25697-0.97612zm0-1.013-0.62647-0.71817-1.9524 0.49725 0.62623 0.71841z" fill="#b0d25a" stroke-width=".1226"/>
</g>
</g>
<g transform="matrix(.26458 0 0 .26458 188.16 181.26)" fill="#b0d25a">
<path d="m-332.26-151.12c0 3.45 5.751 11.503 5.751 11.503s5.751-8.052 5.751-11.617c0-6.672-5.751-6.787-5.751-6.787s-5.751 0.115-5.751 6.902zm3.45-1.151c3e-3 -1.27 1.032-2.298 2.301-2.301 1.27 3e-3 2.298 1.032 2.301 2.301-3e-3 1.27-1.032 2.298-2.301 2.301-1.27-3e-3 -2.298-1.032-2.301-2.301z" fill="#b0d25a"/>
</g>
<text x="103.55599" y="169.26152" fill="#808080" font-family="sans-serif" font-size="5.9272px" letter-spacing="0px" stroke-width=".14818" word-spacing="0px" style="line-height:1.25" xml:space="preserve"><tspan x="103.55599" y="169.26152" fill="#808080" font-family="Roboto" font-size="3.5563px" font-weight="500" stroke-width=".14818">7:55</tspan></text>
<circle cx="100.93" cy="168.02" r=".78441" fill="#b3b3b3" stroke-width=".82829"/>
<text x="182.25851" y="169.68929" fill="#808080" font-family="sans-serif" font-size="5.9272px" letter-spacing="0px" stroke-width=".14818" word-spacing="0px" style="line-height:1.25" xml:space="preserve"><tspan x="182.25851" y="169.68929" fill="#808080" font-family="Roboto" font-size="3.5563px" font-weight="500" stroke-width=".14818">8:05</tspan></text>
</g>
</svg>
