<?xml version="1.0" encoding="UTF-8" standalone="no"?>
<!-- Created with Inkscape (http://www.inkscape.org/) -->

<svg
   xmlns:dc="http://purl.org/dc/elements/1.1/"
   xmlns:cc="http://creativecommons.org/ns#"
   xmlns:rdf="http://www.w3.org/1999/02/22-rdf-syntax-ns#"
   xmlns:svg="http://www.w3.org/2000/svg"
   xmlns="http://www.w3.org/2000/svg"
   xmlns:sodipodi="http://sodipodi.sourceforge.net/DTD/sodipodi-0.dtd"
   xmlns:inkscape="http://www.inkscape.org/namespaces/inkscape"
   width="34.760124mm"
   height="25.630871mm"
   viewBox="0 0 34.760124 25.630871"
   version="1.1"
   id="svg7861"
   inkscape:version="0.92.2 (5c3e80d, 2017-08-06)"
   sodipodi:docname="ipad-icon.svg">
  <defs
     id="defs7855" />
  <sodipodi:namedview
     id="base"
     pagecolor="#ffffff"
     bordercolor="#666666"
     borderopacity="1.0"
     inkscape:pageopacity="0.0"
     inkscape:pageshadow="2"
     inkscape:zoom="1.4"
     inkscape:cx="139.65584"
     inkscape:cy="-3.9664888"
     inkscape:document-units="mm"
     inkscape:current-layer="layer1"
     showgrid="false"
     inkscape:window-width="1920"
     inkscape:window-height="1016"
     inkscape:window-x="0"
     inkscape:window-y="27"
     inkscape:window-maximized="1" />
  <metadata
     id="metadata7858">
    <rdf:RDF>
      <cc:Work
         rdf:about="">
        <dc:format>image/svg+xml</dc:format>
        <dc:type
           rdf:resource="http://purl.org/dc/dcmitype/StillImage" />
        <dc:title></dc:title>
      </cc:Work>
    </rdf:RDF>
  </metadata>
  <g
     inkscape:label="Layer 1"
     inkscape:groupmode="layer"
     id="layer1"
     transform="translate(-88.453271,-136.0179)">
    <g
       id="g1548"
       transform="matrix(0.27021242,0,0,0.26458333,37.765474,52.173332)">
      <path
         style="fill:#717272"
         inkscape:connector-curvature="0"
         id="path1510"
         transform="translate(279.94,357.235)"
         d="m 30.063,22.082 a 2.2,2.2 0 1 1 2.2,2.2 2.2,2.2 0 0 1 -2.2,-2.2 z m -11.088,0 a 2.2,2.2 0 1 1 2.2,2.2 2.2,2.2 0 0 1 -2.2,-2.2 z M 14.531,19.415 14.25,0.983 H 12.987 V 0 H 15 l 0.326,18.152 h 20.959 v 1.263 z M 19.4,16.842 V 9.918 h 10.76 v 6.924 z m 3.463,-5.38 H 26.7 V 10.713 H 22.859 Z M 3.814,16.139 v -2.028 h 9.57 v 2.027 z M 0,11.531 V 9.5 h 13.5 v 2.028 z M 18.648,9.169 V 7.626 h 12.257 v 1.543 z"
         class="s" />
      <path
         style="fill:#cccccc"
         inkscape:connector-curvature="0"
         id="path1512"
         transform="translate(187.585,325.025)"
         d="m 6.222,22.082 a 2.2,2.2 0 1 0 -2.2,2.2 2.2,2.2 0 0 0 2.2,-2.2 z m 11.088,0 a 2.2,2.2 0 1 0 -2.2,2.2 2.2,2.2 0 0 0 2.2,-2.2 z M 21.754,19.415 22.035,0.982 H 23.3 V 0 H 21.286 L 20.96,18.152 H 0 v 1.262 z M 16.889,16.843 V 9.918 H 6.129 v 6.924 z m -3.463,-5.38 H 9.59 v -0.749 h 3.836 z M 32.471,16.14 V 14.112 H 22.9 v 2.027 z m 3.814,-4.608 V 9.5 H 22.79 v 2.03 z M 17.637,9.169 V 7.625 H 5.38 v 1.544 z"
         class="u" />
      <g
         id="g1546"
         transform="matrix(0.966,-0.259,0.259,0.966,196.89,327.665)">
        <g
           id="g1526"
           transform="rotate(26,-34.843946,85.483306)">
          <rect
             style="fill:#ececec"
             y="0"
             x="0"
             id="rect1514"
             transform="translate(10.354,10.553)"
             height="3.184"
             width="22.002001"
             class="v" />
          <rect
             style="fill:#f37323"
             y="0"
             x="0"
             id="rect1516"
             transform="translate(10.192)"
             height="3.184"
             width="22.002001"
             class="w" />
          <rect
             style="fill:#5c5c5c"
             y="0"
             x="0"
             id="rect1518"
             transform="translate(10.354,5.277)"
             height="3.184"
             width="22.002001"
             class="x" />
          <rect
             style="fill:#ececec"
             y="0"
             x="0"
             id="rect1520"
             transform="translate(0,10.553)"
             height="3.184"
             width="6.7950001"
             class="v" />
          <rect
             style="fill:#f37323"
             y="0"
             x="0"
             id="rect1522"
             height="3.184"
             width="6.7950001"
             class="w" />
          <rect
             style="fill:#717272"
             y="0"
             x="0"
             id="rect1524"
             transform="translate(0,5.277)"
             height="3.184"
             width="6.7950001"
             class="s" />
        </g>
        <g
           id="g1540"
           transform="rotate(26,-82.132553,74.565362)">
          <rect
             style="fill:#5c5c5c"
             y="0"
             x="0"
             id="rect1528"
             transform="translate(10.354,10.553)"
             height="3.184"
             width="22.002001"
             class="x" />
          <rect
             style="fill:#3aa348"
             y="0"
             x="0"
             id="rect1530"
             transform="translate(10.192)"
             height="3.184"
             width="22.002001"
             class="y" />
          <rect
             style="fill:#ececec"
             y="0"
             x="0"
             id="rect1532"
             transform="translate(10.354,5.277)"
             height="3.184"
             width="22.002001"
             class="v" />
          <rect
             style="fill:#5ea0cd"
             y="0"
             x="0"
             id="rect1534"
             transform="translate(0,10.553)"
             height="3.184"
             width="6.7950001"
             class="z" />
          <rect
             style="fill:#3aa348"
             y="0"
             x="0"
             id="rect1536"
             height="3.184"
             width="6.7950001"
             class="y" />
          <rect
             style="fill:#5c5c5c"
             y="0"
             x="0"
             id="rect1538"
             transform="translate(0,5.277)"
             height="3.184"
             width="6.7950001"
             class="x" />
        </g>
        <g
           id="g1544">
          <path
             style="fill:#c0bfbf"
             inkscape:connector-curvature="0"
             id="path1542"
             d="M 76,16.2 45,1.08 C 40.089,-1.188 34.419,0.7 34.041,1.458 l -31.755,65.4 c -4.158,8.694 -2.268,14.365 2.646,16.633 l 31,15.121 c 4.914,2.268 10.585,0.378 14.743,-8.317 L 82.429,24.9 c 0,-0.76 -1.89,-6.43 -6.429,-8.7 z M 21.566,88.783 c -3.4,-1.89 -4.914,-5.67 -3.024,-9.073 a 6.479,6.479 0 0 1 9.073,-3.024 6.479,6.479 0 0 1 3.024,9.073 7.272,7.272 0 0 1 -9.073,3.024 z M 11.359,65.724 38.577,10.154 72.977,26.787 45.76,82.357 11.36,65.724 Z"
             class="i" />
        </g>
      </g>
    </g>
  </g>
</svg>
