<?xml version="1.0" encoding="UTF-8" standalone="no"?>
<svg
   xmlns:dc="http://purl.org/dc/elements/1.1/"
   xmlns:cc="http://creativecommons.org/ns#"
   xmlns:rdf="http://www.w3.org/1999/02/22-rdf-syntax-ns#"
   xmlns:svg="http://www.w3.org/2000/svg"
   xmlns="http://www.w3.org/2000/svg"
   xmlns:sodipodi="http://sodipodi.sourceforge.net/DTD/sodipodi-0.dtd"
   xmlns:inkscape="http://www.inkscape.org/namespaces/inkscape"
   data-name="Group 2559"
   version="1.1"
   viewBox="-4574 -1091 470.37329 77.835335"
   id="svg154"
   sodipodi:docname="onboard-banner-1.svg"
   inkscape:version="0.92.2 (5c3e80d, 2017-08-06)"
   width="470.37329"
   height="77.835335">
  <sodipodi:namedview
     pagecolor="#ffffff"
     bordercolor="#666666"
     borderopacity="1"
     objecttolerance="10"
     gridtolerance="10"
     guidetolerance="10"
     inkscape:pageopacity="0"
     inkscape:pageshadow="2"
     inkscape:window-width="1920"
     inkscape:window-height="1016"
     id="namedview156"
     showgrid="false"
     inkscape:zoom="2.1608575"
     inkscape:cx="202.832"
     inkscape:cy="32.152323"
     inkscape:window-x="0"
     inkscape:window-y="27"
     inkscape:window-maximized="1"
     inkscape:current-layer="g167" />
  <metadata
     id="metadata123">
    <rdf:RDF>
      <cc:Work
         rdf:about="">
        <dc:format>image/svg+xml</dc:format>
        <dc:type
           rdf:resource="http://purl.org/dc/dcmitype/StillImage" />
      </cc:Work>
    </rdf:RDF>
  </metadata>
  <defs
     id="defs132">
    <style
       id="style125">.cls-1 {
        fill: url(#a);
      }
      .cls-2 {
        fill: #46626c;
      }
      .cls-3 {
        fill: #24242a;
      }
      .cls-4 {
        fill: #fff;
      }
      .cls-5 {
        fill: #717272;
      }
      .cls-6 {
        fill: #b0d25a;
      }
      .cls-7 {
        fill: #34425b;
      }
      .cls-7, .cls-8 {
        fill-rule: evenodd;
      }
      .cls-8 {
        fill: #5ea0cc;
      }
      .cls-9 {
        fill: #8bb03e;
      }</style>
    <linearGradient
       id="a"
       x1="0.5"
       x2="0.5"
       y1="0.917"
       y2="0.39399999">
      <stop
         stop-color="#9adff8"
         offset="0"
         id="stop127" />
      <stop
         stop-color="#03a8ff"
         offset="1"
         id="stop129" />
    </linearGradient>
  </defs>
  <g
     id="g167"
     transform="translate(7.2914451,0.46562218)">
    <g
       id="g223"
       transform="matrix(1.0140852,0,0,1.1280483,56.566372,98.174115)">
      <path
         style="fill:#46626c"
         inkscape:connector-curvature="0"
         class="cls-2"
         d="m -4109.6,-985.6 h -47.481 v -48.6 h 9.124 v -7.343 h 1.72 v -11.22 h 0.945 v 11.22 h 1.735 v 7.343 h 9.994 v 25.7 h 23.962 v 22.9 z m -48.079,0 h -54.4 v -34.1 h 54.4 z m -54.979,0 h -102.54 v -54 h 32.313 v 19.881 l 17.16,0.644 0.81,-10 18.758,-0.844 v -24.681 h 33.5 z m -103.1,0 h -52.471 v -25.888 h 52.471 z m -53.048,0 h -93.274 v -48.6 h 9.122 v -7.343 h 1.722 v -11.22 h 0.945 v 11.22 h 1.734 v 7.343 h 10 v 25.7 h 23.961 v 6.032 h 23.112 v -20.7 h 9.641 v -5.916 h 1.672 v -9.037 h 0.912 v 9.037 h 1.661 v 5.916 h 8.8 z m -93.873,0 h -54.4 v -34.1 h 54.4 z m -54.979,0 h -55.782 l 3.52,-43.474 18.759,-0.844 v -24.682 h 33.5 z"
         data-name="Subtraction 92"
         id="path134" />
    </g>
  </g>
</svg>
