<svg xmlns="http://www.w3.org/2000/svg" viewBox="-2886.2 -719.814 244.2 140.765">
  <defs>
    <style>
      .cls-1 {
        fill: #717272;
      }

      .cls-2 {
        fill: #5ea0cd;
      }

      .cls-3 {
        fill: #b0d25a;
      }

      .cls-4 {
        fill: #faa800;
      }
    </style>
  </defs>
  <g id="Group_2555" data-name="Group 2555" transform="translate(-3004 -843)">
    <g id="Group_1172" data-name="Group 1172" transform="translate(117.8 129.551)">
      <g id="Group_1170" data-name="Group 1170" transform="translate(93.687)">
        <path id="Path_522" data-name="Path 522" class="cls-1" d="M22.951,116.725,12.2,109.045,73.634,0,84.385,8.447Z" transform="translate(-12.2)"/>
        <path id="Path_523" data-name="Path 523" class="cls-2" d="M96.328,118.359s-25.342,1.536-39.164-28.413C43.342,58.46,18,60.764,18,60.764L48.717,2.4s27.645-.768,36.092,26.109c7.679,27.645,39.164,28.413,39.164,28.413Z" transform="translate(26.54 16.028)"/>
      </g>
      <g id="Group_1171" data-name="Group 1171">
        <path id="Path_524" data-name="Path 524" class="cls-1" d="M72.2,116.725l10.751-7.679L21.519,0,10,8.447Z" transform="translate(66.792)"/>
        <path id="Path_525" data-name="Path 525" class="cls-3" d="M26.877,117.691s25.342,1.536,39.164-28.413,39.164-28.413,39.164-28.413L74.489,2.5S46.843,1.734,38.4,28.611,0,56.257,0,56.257Z" transform="translate(0 16.696)"/>
      </g>
    </g>
    <g id="XMLID_1_" transform="translate(172 265)">
      <path id="XMLID_4_" class="cls-4" d="M35,23.264l-12.176.652L16.307,34.353,11.958,23.047,0,20l9.567-7.61L8.7,0,18.916,6.74,30.222,2.174,27.178,13.915Z" transform="matrix(0.966, 0.259, -0.259, 0.966, -35.879, -141.814)"/>
      <path id="XMLID_3_" class="cls-4" d="M27.642,0l-.356,6.415,5.167,3.92-6.237,1.6L24.079,18l-3.564-5.346L14.1,12.473l4.1-4.989L16.416,1.426,22.3,3.564Z" transform="translate(62.806 -138.888)"/>
      <path id="XMLID_2_" class="cls-4" d="M19.7,0l-.525,9.455,7.616,5.778L17.6,17.6l-3.152,8.929-4.99-7.879L0,18.384,5.778,11.03,3.152,2.1l8.929,3.414Z" transform="matrix(0.966, -0.259, 0.259, 0.966, 154.259, -96.835)"/>
      <path id="XMLID_3_2" data-name="XMLID_3_" class="cls-4" d="M26.98,0l-.339,6.1L31.556,9.83l-5.932,1.525-2.034,5.762L20.2,12.033l-6.1-.169L18,7.118,16.3,1.356,21.9,3.39Z" transform="translate(45.536 -112.313)"/>
      <path id="XMLID_3_3" data-name="XMLID_3_" class="cls-4" d="M27.642,0l-.356,6.415,5.167,3.92-6.237,1.6L24.079,18l-3.564-5.346L14.1,12.473l4.1-4.989L16.416,1.426,22.3,3.564Z" transform="translate(0.481 -33.132)"/>
      <path id="XMLID_3_4" data-name="XMLID_3_" class="cls-4" d="M7.779,0l-.2,3.685,2.968,2.252L6.96,6.858l-1.228,3.48L3.685,7.267,0,7.165,2.354,4.3,1.331.819,4.708,2.047Z" transform="matrix(0.809, -0.588, 0.588, 0.809, 103.825, -32.914)"/>
    </g>
  </g>
</svg>
