<svg id="Group_1333" data-name="Group 1333" xmlns="http://www.w3.org/2000/svg" viewBox="7903.366 4038 443.268 36.845">
  <defs>
    <style>
      .cls-1 {
        fill: #ececec;
      }

      .cls-2 {
        fill: #fff;
      }

      .cls-3 {
        fill: #b0d25a;
      }

      .cls-4 {
        fill: #717272;
      }
    </style>
  </defs>
  <rect id="Rectangle_889" data-name="Rectangle 889" class="cls-1" width="443.268" height="6.512" rx="3.256" transform="translate(7903.366 4068.333)"/>
  <g id="Group_1328" data-name="Group 1328" transform="translate(7911 4038)">
    <rect id="Rectangle_890" data-name="Rectangle 890" class="cls-2" width="8.04" height="14.472" transform="translate(27.398 4.824)"/>
    <path id="Union_270" data-name="Union 270" class="cls-3" d="M24.463,25.416a5.141,5.141,0,0,1,.112-1.065H15.96a4.911,4.911,0,0,1,.112,1.065,5.551,5.551,0,1,1-11.1,0,5.125,5.125,0,0,1,.112-1.065H0V19.006H1.122V0H24.463V3.084H35.022l2.672,9.026v6.9h.879a.455.455,0,0,1,.448.448V23.9a.455.455,0,0,1-.448.449H35.452a4.911,4.911,0,0,1,.112,1.065,5.551,5.551,0,0,1-11.1,0Zm2.878,0a2.672,2.672,0,1,0,2.672-2.672A2.672,2.672,0,0,0,27.342,25.416Zm-19.492,0a2.672,2.672,0,1,0,2.672-2.672A2.672,2.672,0,0,0,7.849,25.416ZM28.107,12.372h7.009l-1.7-6.354H28.107Z"/>
  </g>
  <g id="Group_1330" data-name="Group 1330" transform="translate(7885 3735)">
    <rect id="Rectangle_892" data-name="Rectangle 892" class="cls-2" width="28" height="15" transform="translate(414.081 313)"/>
    <g id="Group_1329" data-name="Group 1329" transform="translate(412.001 310)">
      <path id="Union_271" data-name="Union 271" class="cls-4" d="M21.636,20.113a4.1,4.1,0,0,1,.089-.843H14.907a3.826,3.826,0,0,1,.09.843,4.393,4.393,0,0,1-8.785,0A4.106,4.106,0,0,1,6.3,19.27H2.277V15.04H19.951V2.44H29.992l2.115,7.143V15.04h.7a.36.36,0,0,1,.355.355v3.52a.36.36,0,0,1-.355.355H30.332a3.9,3.9,0,0,1,.088.843,4.392,4.392,0,1,1-8.784,0Zm2.277,0A2.115,2.115,0,1,0,26.029,18,2.115,2.115,0,0,0,23.914,20.113Zm-15.424,0A2.115,2.115,0,1,0,10.6,18,2.115,2.115,0,0,0,8.49,20.113ZM24.52,9.79h5.546L28.72,4.761h-4.2ZM3.165,11.4V9.3H15.75v2.1ZM0,7.187V5.176H15.75V7.187ZM3.165,2.425V0H21.636V2.425Z" transform="translate(0 0)"/>
    </g>
  </g>
  <path id="Rectangle_896" data-name="Rectangle 896" class="cls-3" d="M3.256,0H221.268a0,0,0,0,1,0,0V6.512a0,0,0,0,1,0,0H3.256A3.256,3.256,0,0,1,0,3.256v0A3.256,3.256,0,0,1,3.256,0Z" transform="translate(7903.634 4068.333)"/>
</svg>
