<?xml version="1.0" encoding="UTF-8" standalone="no"?>
<!-- Created with Inkscape (http://www.inkscape.org/) -->

<svg
   xmlns:dc="http://purl.org/dc/elements/1.1/"
   xmlns:cc="http://creativecommons.org/ns#"
   xmlns:rdf="http://www.w3.org/1999/02/22-rdf-syntax-ns#"
   xmlns:svg="http://www.w3.org/2000/svg"
   xmlns="http://www.w3.org/2000/svg"
   xmlns:sodipodi="http://sodipodi.sourceforge.net/DTD/sodipodi-0.dtd"
   xmlns:inkscape="http://www.inkscape.org/namespaces/inkscape"
   viewBox="0 0 11.245164 2.207104"
   version="1.1"
   id="svg8"
   inkscape:version="0.92.2 (5c3e80d, 2017-08-06)"
   sodipodi:docname="pagination-dots-icon.svg">
  <defs
     id="defs2" />
  <sodipodi:namedview
     id="base"
     pagecolor="#ffffff"
     bordercolor="#666666"
     borderopacity="1.0"
     inkscape:pageopacity="0.0"
     inkscape:pageshadow="2"
     inkscape:zoom="15.839192"
     inkscape:cx="31.907305"
     inkscape:cy="-4.819775"
     inkscape:document-units="mm"
     inkscape:current-layer="g3681"
     showgrid="false"
     inkscape:window-width="1920"
     inkscape:window-height="1016"
     inkscape:window-x="0"
     inkscape:window-y="27"
     inkscape:window-maximized="1" />
  <metadata
     id="metadata5">
    <rdf:RDF>
      <cc:Work
         rdf:about="">
        <dc:format>image/svg+xml</dc:format>
        <dc:type
           rdf:resource="http://purl.org/dc/dcmitype/StillImage" />
        <dc:title></dc:title>
      </cc:Work>
    </rdf:RDF>
  </metadata>
  <g
     inkscape:label="Layer 1"
     inkscape:groupmode="layer"
     id="layer1"
     transform="translate(-137.39877,-264.28228)">
    <g
       id="g3681"
       transform="matrix(0.26458333,0,0,0.26458333,137.97499,261.57047)">
      <g
         id="g3832">
        <g
           style="fill:#4d4d4d"
           id="g3817">
          <path
             style="fill:#4d4d4d"
             d="m 1.9920928,10.249351 c -2.30299997,0 -4.16992,1.86891 -4.16992,4.17191 0,2.303 1.86692003,4.1699 4.16992,4.1699 2.303,0 4.16993,-1.8669 4.16993,-4.1699 0,-2.303 -1.86693,-4.17191 -4.16993,-4.17191 z m 0,0.42579 c 2.06878,0 3.7461,1.67732 3.7461,3.74612 0,2.0687 -1.67732,3.7441 -3.7461,3.7441 -2.06876997,0 -3.74609,-1.6754 -3.74609,-3.7441 0,-2.0688 1.67732003,-3.74612 3.74609,-3.74612 z"
             id="path3664"
             inkscape:connector-curvature="0" />
        </g>
        <path
           style="fill:#4d4d4d"
           inkscape:connector-curvature="0"
           d="m 17.549309,14.420256 c 0,2.303 -1.867,4.17 -4.17,4.17 -2.303,0 -4.1699998,-1.867 -4.1699998,-4.17 0,-2.303 1.8669998,-4.17 4.1699998,-4.17 2.303,0 4.17,1.867 4.17,4.17 z"
           id="path3664-7-2" />
        <g
           transform="translate(-2.4553572)"
           style="fill:#4d4d4d"
           id="g3823">
          <path
             style="fill:#4d4d4d"
             d="m 38.609006,10.249351 c -2.303,0 -4.16992,1.86891 -4.16992,4.17191 0,2.303 1.86692,4.1699 4.16992,4.1699 2.303,0 4.16993,-1.8669 4.16993,-4.1699 0,-2.303 -1.86693,-4.17191 -4.16993,-4.17191 z m 0,0.42579 c 2.06878,0 3.7461,1.67732 3.7461,3.74612 0,2.0687 -1.67732,3.7441 -3.7461,3.7441 -2.06877,0 -3.74609,-1.6754 -3.74609,-3.7441 0,-2.0688 1.67732,-3.74612 3.74609,-3.74612 z"
             id="path3664-3"
             inkscape:connector-curvature="0" />
        </g>
        <g
           style="fill:#4d4d4d"
           transform="translate(-2.3247507)"
           id="g3820">
          <path
             style="fill:#4d4d4d"
             d="m 27.091149,10.249351 c -2.303,0 -4.16992,1.86891 -4.16992,4.17191 0,2.303 1.86692,4.1699 4.16992,4.1699 2.303,0 4.16993,-1.8669 4.16993,-4.1699 0,-2.303 -1.86693,-4.17191 -4.16993,-4.17191 z m 0,0.42579 c 2.06878,0 3.7461,1.67732 3.7461,3.74612 0,2.0687 -1.67732,3.7441 -3.7461,3.7441 -2.06877,0 -3.74609,-1.6754 -3.74609,-3.7441 0,-2.0688 1.67732,-3.74612 3.74609,-3.74612 z"
             id="path3664-6"
             inkscape:connector-curvature="0" />
        </g>
      </g>
    </g>
  </g>
</svg>
