<?xml version="1.0" encoding="UTF-8" standalone="no"?>
<!-- Created with Inkscape (http://www.inkscape.org/) -->

<svg
   xmlns:dc="http://purl.org/dc/elements/1.1/"
   xmlns:cc="http://creativecommons.org/ns#"
   xmlns:rdf="http://www.w3.org/1999/02/22-rdf-syntax-ns#"
   xmlns:svg="http://www.w3.org/2000/svg"
   xmlns="http://www.w3.org/2000/svg"
   xmlns:sodipodi="http://sodipodi.sourceforge.net/DTD/sodipodi-0.dtd"
   xmlns:inkscape="http://www.inkscape.org/namespaces/inkscape"
   width="88.642471mm"
   height="29.544804mm"
   viewBox="0 0 88.642472 29.544804"
   version="1.1"
   id="svg5785"
   inkscape:version="0.92.2 (5c3e80d, 2017-08-06)"
   sodipodi:docname="road.svg">
  <defs
     id="defs5779" />
  <sodipodi:namedview
     id="base"
     pagecolor="#ffffff"
     bordercolor="#666666"
     borderopacity="1.0"
     inkscape:pageopacity="0.0"
     inkscape:pageshadow="2"
     inkscape:zoom="1.4"
     inkscape:cx="278.38886"
     inkscape:cy="56.610785"
     inkscape:document-units="mm"
     inkscape:current-layer="g5531"
     showgrid="false"
     inkscape:window-width="1920"
     inkscape:window-height="1043"
     inkscape:window-x="1920"
     inkscape:window-y="0"
     inkscape:window-maximized="1" />
  <metadata
     id="metadata5782">
    <rdf:RDF>
      <cc:Work
         rdf:about="">
        <dc:format>image/svg+xml</dc:format>
        <dc:type
           rdf:resource="http://purl.org/dc/dcmitype/StillImage" />
        <dc:title></dc:title>
      </cc:Work>
    </rdf:RDF>
  </metadata>
  <g
     inkscape:label="Layer 1"
     inkscape:groupmode="layer"
     id="layer1"
     transform="translate(-85.74985,-187.00266)">
    <g
       id="g5531"
       transform="matrix(0.26482146,0,0,0.26458333,1025.7511,521.20638)">
      <g
         id="g5886">
        <path
           sodipodi:nodetypes="csccc"
           style="fill:#ececec;stroke-width:1.05497158"
           inkscape:connector-curvature="0"
           id="path1032-5"
           d="m -3409.1906,-1151.9273 c 0,0 80.6375,-104.3451 119.5656,-103.9438 38.6731,0.3986 74.7844,49.3505 74.7844,49.3505 v 54.5893 z"
           class="f" />
        <path
           sodipodi:nodetypes="cccccccc"
           style="fill:#24242a;stroke-width:1.01657689"
           inkscape:connector-curvature="0"
           id="path1034-9"
           d="m -3549.566,-1151.7445 c 0,0 135.0453,-27.2707 161.1641,-25.7487 52.1401,-59.737 91.9592,-78 91.9592,-78 -13.7359,8.902 -26.3965,19.2668 -37.7442,30.9 -18.5812,19.115 -25.351,30.493 -35.2422,43.146 -2.7367,13.807 -15.7394,12.061 -15.7394,12.061 l -93.2489,17.73 z"
           class="c" />
        <path
           style="fill:#faa800;stroke-width:1.01657689"
           inkscape:connector-curvature="0"
           id="path1036-2"
           d="m -3506.2419,-1177.9372 c 0,6.153 10.5981,20.51 10.5981,20.51 0,0 10.598,-14.357 10.598,-20.716 0,-11.895 -10.598,-12.1 -10.598,-12.1 0,0 -10.5981,0.205 -10.5981,12.306 m 6.359,-2.051 a 4.251843,4.114 0 0 1 4.2374,-4.1 4.251843,4.114 0 0 1 4.2374,4.1 4.251843,4.114 0 0 1 -4.2374,4.1 4.251843,4.114 0 0 1 -4.2374,-4.1 z"
           class="g" />
        <path
           style="fill:#ee3c25;stroke-width:1.01657689"
           inkscape:connector-curvature="0"
           id="path1038-2"
           d="m -3307.4008,-1258.4172 c 0,2.358 4.0605,7.858 4.0605,7.858 0,0 4.0607,-5.5 4.0607,-7.937 0,-4.557 -4.0607,-4.636 -4.0607,-4.636 0,0 -4.0605,0.079 -4.0605,4.715 m 2.4369,-0.786 a 1.6287679,1.576 0 0 1 1.6236,-1.571 1.6287679,1.576 0 0 1 1.6238,1.571 1.6287679,1.576 0 0 1 -1.6238,1.571 1.6287679,1.576 0 0 1 -1.6236,-1.571 z"
           class="h" />
        <path
           style="fill:#ffffff;fill-rule:evenodd;stroke-width:1.01657689"
           inkscape:connector-curvature="0"
           id="path1040-8"
           d="m -3479.8976,-1159.5815 0.2334,1.0133 -7.3179,2.7698 -0.3012,-1.2885 z"
           class="i" />
        <path
           style="fill:#ffffff;fill-rule:evenodd;stroke-width:1.01657689"
           inkscape:connector-curvature="0"
           id="path1042-9"
           d="m -3450.377,-1166.7072 0.1077,0.7768 -5.6639,1.6082 -0.1416,-0.9912 z"
           class="i" />
        <path
           style="fill:#ffffff;fill-rule:evenodd;stroke-width:1.01657689"
           inkscape:connector-curvature="0"
           id="path1044-7"
           d="m -3421.033,-1172.1386 0.051,0.42 -3.0708,0.8154 -0.062,-0.537 z"
           class="i" />
        <path
           style="fill:#ffffff;fill-rule:evenodd;stroke-width:1.01677859"
           inkscape:connector-curvature="0"
           id="path1046-3"
           d="m -3350.7289,-1212.7172 0.5382,0.586 -3.7681,4.3977 -0.6901,-0.7454 z"
           class="i" />
        <path
           style="fill:#ffffff;fill-rule:evenodd;stroke-width:1.01657689"
           inkscape:connector-curvature="0"
           id="path1048-6"
           d="m -3330.1836,-1231.3172 0.2484,0.3479 -2.3159,2.115 -0.3149,-0.4462 z"
           class="i" />
        <path
           style="fill:#f37323;stroke-width:1.01657689"
           inkscape:connector-curvature="0"
           id="path1050-1"
           d="m -3381.5467,-1195.4772 c 0,3.975 6.847,13.25 6.847,13.25 0,0 6.8469,-9.275 6.8469,-13.382 0,-7.685 -6.8469,-7.818 -6.8469,-7.818 0,0 -6.847,0.133 -6.847,7.95 m 4.1083,-1.325 a 2.7470583,2.658 0 0 1 2.7387,-2.65 2.7470583,2.658 0 0 1 2.7387,2.65 2.7470583,2.658 0 0 1 -2.7387,2.65 2.7470583,2.658 0 0 1 -2.7387,-2.65 z"
           class="j" />
        <path
           sodipodi:nodetypes="cscc"
           style="fill:#ececec;stroke-width:1.01657689"
           inkscape:connector-curvature="0"
           id="path1054-9"
           d="m -3478.4174,-1151.6562 c 0,0 73.1417,-25.0196 109.2148,-25.0196 36.0701,0 71.0651,25.209 71.0651,25.209 z"
           class="f" />
        <ellipse
           style="fill:#ffffff;stroke-width:1.01657689"
           id="ellipse1056-3"
           ry="5"
           rx="5.1675291"
           cy="-1180.6172"
           cx="-3495.7656"
           class="l" />
        <ellipse
           style="fill:#ffffff;stroke-width:1.01657689"
           id="ellipse1058-1"
           ry="3"
           rx="3.100497"
           cy="-1196.6172"
           cx="-3374.8337"
           class="l" />
        <ellipse
           style="fill:#ffffff;stroke-width:1.01657689"
           id="ellipse1060-9"
           ry="2"
           rx="2.0670319"
           cy="-1258.6172"
           cx="-3303.5356"
           class="l" />
      </g>
    </g>
  </g>
</svg>
