<?xml version="1.0" encoding="UTF-8" standalone="no"?>
<!-- Created with Inkscape (http://www.inkscape.org/) -->

<svg
   xmlns:dc="http://purl.org/dc/elements/1.1/"
   xmlns:cc="http://creativecommons.org/ns#"
   xmlns:rdf="http://www.w3.org/1999/02/22-rdf-syntax-ns#"
   xmlns:svg="http://www.w3.org/2000/svg"
   xmlns="http://www.w3.org/2000/svg"
   xmlns:sodipodi="http://sodipodi.sourceforge.net/DTD/sodipodi-0.dtd"
   xmlns:inkscape="http://www.inkscape.org/namespaces/inkscape"
   width="23.539669mm"
   height="34.95842mm"
   viewBox="0 0 23.539669 34.95842"
   version="1.1"
   id="svg200"
   inkscape:version="0.92.2 (5c3e80d, 2017-08-06)"
   sodipodi:docname="truck.svg">
  <defs
     id="defs194" />
  <sodipodi:namedview
     id="base"
     pagecolor="#ffffff"
     bordercolor="#666666"
     borderopacity="1.0"
     inkscape:pageopacity="0.0"
     inkscape:pageshadow="2"
     inkscape:zoom="5.6"
     inkscape:cx="74.22997"
     inkscape:cy="71.781892"
     inkscape:document-units="mm"
     inkscape:current-layer="layer1"
     showgrid="false"
     inkscape:window-width="1920"
     inkscape:window-height="1043"
     inkscape:window-x="1920"
     inkscape:window-y="0"
     inkscape:window-maximized="1" />
  <metadata
     id="metadata197">
    <rdf:RDF>
      <cc:Work
         rdf:about="">
        <dc:format>image/svg+xml</dc:format>
        <dc:type
           rdf:resource="http://purl.org/dc/dcmitype/StillImage" />
        <dc:title></dc:title>
      </cc:Work>
    </rdf:RDF>
  </metadata>
  <g
     inkscape:label="Layer 1"
     inkscape:groupmode="layer"
     id="layer1"
     transform="translate(25.376978,15.300639)">
    <g
       id="g233">
      <rect
         style="fill:#ffffff;stroke-width:0.26458332"
         class="cls-4"
         x="-19.026978"
         y="13.115616"
         width="7.9375"
         height="2.6458333"
         data-name="Rectangle 1152"
         id="rect138" />
      <rect
         style="fill:#ffffff;stroke-width:0.26458332"
         class="cls-4"
         x="-23.260311"
         y="-13.342715"
         width="16.668751"
         height="24.870832"
         data-name="Rectangle 1153"
         id="rect140" />
      <path
         style="fill:#717272;stroke-width:0.26458332"
         inkscape:connector-curvature="0"
         class="cls-5"
         d="m -23.313228,-15.300639 a 2.0679833,2.0679833 0 0 0 -2.06375,2.06375 v 28.8925 a 2.0679833,2.0679833 0 0 0 2.06375,2.06375 h 16.5100005 a 2.0679833,2.0679833 0 0 0 2.06375,-2.06375 v -28.8925 a 2.219325,2.219325 0 0 0 -2.06375,-2.06375 z m 5.36575,2.06375 h 5.7785 v 2.06375 h -5.7785 z m -5.36575,4.1275004 H -6.8032275 V 11.528111 H -23.313228 Z m 7.223125,23.7331246 a 0.97498958,0.97498958 0 0 1 1.031875,-1.031875 0.97498958,0.97498958 0 0 1 1.031875,1.031875 1.1054292,1.1054292 0 0 1 -1.031875,1.031875 0.97498958,0.97498958 0 0 1 -1.031875,-1.031875 z"
         data-name="Path 1105"
         id="path142" />
      <path
         style="fill:#b0d25a;stroke-width:0.26458332"
         inkscape:connector-curvature="0"
         class="cls-6"
         d="m -14.370311,-0.96022164 a 2.3931562,2.3931562 0 0 1 1.613958,-0.55562496 c 0.02646,0 -0.608542,0.185208 -1.613958,0.55562496 m -5.503333,2.98979104 a 8.3872917,8.3872917 0 0 1 1.42875,-1.11125004 l 0.211666,0.37041704 c -0.396875,0.370417 -0.820208,0.740833 -1.217083,1.11125 z m 3.466041,-1.87854104 a 6.8582646,6.8582646 0 0 0 -1.42875,0.92604104 l -0.211666,-0.37041604 c 0.396875,-0.370417 0.820208,-0.555625 1.42875,-0.926042 z m 0,-0.370417 a 11.843279,11.843279 0 0 1 1.613958,-0.740833 l 0.211667,0.185208 c -0.396875,0.185208 -1.005416,0.370417 -1.42875,0.740833 z m -4.471458,3.17500004 c 0.211667,-0.185208 0.396875,-0.370417 0.820208,-0.740833 l 0.396875,0.555625 a 4.1613667,4.1613667 0 0 0 -1.217083,2.2225 c 7.9375,2.037291 9.974791,-5.76791704 9.974791,-5.76791704 0.608542,-1.66687496 1.4287505,-1.85208296 1.4287505,-1.85208296 -8.5460415,-0.926042 -10.7949995,3.14854096 -11.4035415,5.582708"
         data-name="Path 1106"
         id="path144" />
      <g
         transform="matrix(0.26458333,0,0,0.26458333,-84.934686,-27.921264)"
         id="g152">
        <path
           style="fill:#34425b;fill-rule:evenodd"
           inkscape:connector-curvature="0"
           class="cls-7"
           transform="translate(-63.595,-169.84)"
           d="m 369.89,332.62 h -25.892 a 4.511,4.511 0 0 1 -4.655,-4.381 v -24.02 a 4.511,4.511 0 0 1 4.655,-4.381 h 26.125 a 4.51,4.51 0 0 1 4.654,4.381 v 24.068 a 4.891,4.891 0 0 1 -4.852,4.381"
           id="path146" />
        <path
           style="fill:#5ea0cc;fill-rule:evenodd"
           inkscape:connector-curvature="0"
           class="cls-8"
           transform="translate(-64,-167.02)"
           d="m 375.49,321.54 c -2.77,0 -2.327,1.316 -2.327,1.967 0,0.217 0,0.217 -0.233,0.435 l -2.548,-9.415 a 1.453,1.453 0 0 0 -1.385,-1.1 h -23.1 a 1.7,1.7 0 0 0 -1.385,1.1 l -2.537,9.415 a 0.757,0.757 0 0 1 -0.233,-0.435 c 0,-0.652 0.465,-1.967 -2.327,-1.967 -2.792,0 -2.549,1.316 -2.549,2.414 0,0.869 1.85,0.869 2.327,0.869 a 9.194,9.194 0 0 1 2.549,0 l -0.465,1.967 h 0.7 v 5.25 h -1.385 v -5.25 h -1.385 a 1.453,1.453 0 0 0 -1.385,1.316 v 12.07 a 1.453,1.453 0 0 0 1.385,1.316 h 1.385 v 2.631 a 2.776,2.776 0 0 0 5.551,0 v -2.631 h 22.645 v 2.631 a 2.776,2.776 0 0 0 5.551,0 v -2.631 h 1.385 a 1.453,1.453 0 0 0 1.385,-1.316 v -12.07 a 1.453,1.453 0 0 0 -1.385,-1.316 h -1.385 v 5.25 h -1.385 v -5.25 h 0.7 l -0.466,-1.967 a 9.731,9.731 0 0 1 2.549,0 c 0.466,0 2.327,0.217 2.327,-0.869 0,-1.086 0.233,-2.414 -2.537,-2.414 m -32.129,18.6 a 2.6,2.6 0 0 1 -2.3,-2.777 2.536,2.536 0 1 1 5.069,0.146 2.729,2.729 0 0 1 -2.77,2.631 m 19.655,-1.533 h -11.371 v -2.631 h 11.323 v 2.631 z m 4.655,-15.751 h -21.576 a 0.932,0.932 0 0 1 -0.8,-0.4 1.009,1.009 0 0 1 -0.121,-0.913 l 1.164,-5.033 a 1.453,1.453 0 0 1 1.385,-1.1 h 18.491 a 1.453,1.453 0 0 1 1.385,1.1 l 0.919,5.033 a 1.009,1.009 0 0 1 -0.121,0.913 0.932,0.932 0 0 1 -0.8,0.4 m 6.7,14.484 a 2.907,2.907 0 0 1 -1.539,2.84 2.705,2.705 0 0 1 -3.11,-0.459 2.959,2.959 0 0 1 -0.714,-3.173 2.785,2.785 0 0 1 2.593,-1.839 2.729,2.729 0 0 1 2.77,2.631"
           data-name="path"
           id="path148" />
        <path
           style="fill:#8bb03e"
           inkscape:connector-curvature="0"
           class="cls-9"
           transform="translate(-62.014,-168.9)"
           d="m 349,311.08 0.919,-0.869 0.466,0.652 A 4.88,4.88 0 0 0 349,313.499 c 9.018,2.414 11.322,-6.783 11.322,-6.783 0.7,-1.967 1.618,-2.185 1.618,-2.185 -9.705,-1.1 -12.254,3.718 -12.94,6.566 m 5.085,-3.718 a 14.016,14.016 0 0 1 1.85,-0.881 l 0.233,0.217 a 5.889,5.889 0 0 0 -1.618,0.869 l -0.465,-0.217 z m 0,0.435 a 7.021,7.021 0 0 0 -1.617,1.1 l -0.233,-0.434 a 9.78,9.78 0 0 1 1.618,-1.1 z m -3.922,2.148 a 9.933,9.933 0 0 1 1.617,-1.316 l 0.233,0.434 -1.385,1.316 z m 6.237,-3.5 a 2.707,2.707 0 0 1 1.85,-0.652 c 0,0 -0.7,0.217 -1.85,0.652"
           data-name="path"
           id="path150" />
      </g>
    </g>
  </g>
</svg>
